<?xml version="1.0" encoding="UTF-8"?>
<!DOCTYPE svg PUBLIC "-//W3C//DTD SVG 1.1//EN" "http://www.w3.org/Graphics/SVG/1.1/DTD/svg11.dtd">
<!-- Creator: CorelDRAW 2018 (64-Bit) -->
<svg xmlns="http://www.w3.org/2000/svg" xml:space="preserve" width="30px" height="30px" version="1.1" style="shape-rendering:geometricPrecision; text-rendering:geometricPrecision; image-rendering:optimizeQuality; fill-rule:evenodd; clip-rule:evenodd"
viewBox="0 0 30 30"
 xmlns:xlink="http://www.w3.org/1999/xlink">
 <defs>
  <style type="text/css">
   <![CDATA[
    .fil0 {fill:#006391}
    .fil1 {fill:white}
    .fil2 {fill:#666666;fill-rule:nonzero}
   ]]>
  </style>
 </defs>
 <g id="Warstwa_x0020_1">
  <metadata id="CorelCorpID_0Corel-Layer"/>
  <circle class="fil0" cx="15" cy="15" r="15"/>
  <circle class="fil1" cx="15" cy="15" r="10.92"/>
  <path class="fil2" d="M-25.88 1.71c1.66,0 3.24,0.33 4.69,0.93 1.5,0.62 2.85,1.53 3.98,2.66 1.13,1.13 2.04,2.48 2.67,3.98 0.6,1.45 0.93,3.04 0.93,4.7 0,1.66 -0.33,3.24 -0.93,4.69 -0.35,0.84 -0.79,1.63 -1.31,2.37l7.08 7.08c0.82,0.82 0.82,2.15 0,2.97 -0.82,0.82 -2.15,0.82 -2.97,0l-7.08 -7.08c-0.73,0.52 -1.53,0.96 -2.37,1.31 -1.45,0.59 -3.03,0.93 -4.69,0.93 -1.66,0 -3.25,-0.34 -4.69,-0.93 -1.51,-0.63 -2.86,-1.54 -3.99,-2.67 -1.13,-1.13 -2.04,-2.48 -2.66,-3.98 -0.6,-1.45 -0.93,-3.03 -0.93,-4.69 0,-1.66 0.33,-3.25 0.93,-4.7 0.62,-1.5 1.53,-2.85 2.66,-3.98 1.13,-1.13 2.48,-2.04 3.99,-2.66 1.44,-0.6 3.03,-0.93 4.69,-0.93zm0 19.23c1.1,-4.8 3.52,-7.52 3.52,-10.4 0,-1.62 -1.31,-3.52 -3.52,-3.52 -2.22,0 -3.52,1.9 -3.52,3.52 0,2.88 2.41,5.6 3.52,10.4zm6.98 -13.94c-0.91,-0.92 -2,-1.65 -3.21,-2.15 -1.16,-0.48 -2.43,-0.74 -3.77,-0.74 -1.34,0 -2.62,0.26 -3.78,0.74 -1.2,0.5 -2.29,1.23 -3.2,2.15 -0.91,0.91 -1.65,1.99 -2.15,3.2 -0.48,1.16 -0.74,2.44 -0.74,3.78 0,1.33 0.26,2.61 0.74,3.77 0.5,1.21 1.24,2.29 2.15,3.2 0.91,0.92 2,1.65 3.2,2.15 1.16,0.48 2.44,0.75 3.78,0.75 1.34,0 2.61,-0.27 3.77,-0.75 1.21,-0.5 2.3,-1.23 3.21,-2.15 0.91,-0.91 1.64,-1.99 2.14,-3.2 0.48,-1.16 0.75,-2.44 0.75,-3.77 0,-1.34 -0.27,-2.62 -0.75,-3.78 -0.5,-1.21 -1.23,-2.29 -2.14,-3.2z"/>
  <path class="fil2" d="M57.78 0c1.66,0 3.24,0.33 4.69,0.93 1.5,0.62 2.85,1.53 3.98,2.66 1.13,1.13 2.04,2.49 2.67,3.99 0.6,1.45 0.93,3.03 0.93,4.69 0,1.66 -0.33,3.24 -0.93,4.69 -0.35,0.84 -0.79,1.64 -1.31,2.37l7.08 7.09c0.82,0.82 0.82,2.15 0,2.97 -0.82,0.82 -2.15,0.82 -2.97,0l-7.08 -7.09c-0.73,0.52 -1.53,0.96 -2.37,1.31 -1.45,0.6 -3.03,0.93 -4.69,0.93 -1.66,0 -3.25,-0.33 -4.69,-0.93 -1.51,-0.62 -2.86,-1.53 -3.99,-2.66 -1.13,-1.13 -2.04,-2.49 -2.66,-3.99 -0.6,-1.45 -0.93,-3.03 -0.93,-4.69 0,-1.66 0.33,-3.24 0.93,-4.69 0.62,-1.5 1.53,-2.86 2.66,-3.99 1.13,-1.13 2.48,-2.04 3.99,-2.66 1.44,-0.6 3.03,-0.93 4.69,-0.93zm5.66 16.15l0.77 2.55 -5.05 -1.51 1.17 -1.17 -2.55 -2.55 -2.56 2.56 1.17 1.16 -5.05 1.52 1.52 -5.05 1.18 1.18 2.55 -2.56 -2.56 -2.56 -1.17 1.16 -1.51 -5.05 5.04 1.52 -1.18 1.18 2.57 2.57 2.56 -2.56 -1.17 -1.18 5.04 -1.51 -1.51 5.04 -1.17 -1.17 -2.56 2.56 2.55 2.55 1.17 -1.17 0.75 2.49zm1.32 -10.86c-0.91,-0.91 -2,-1.64 -3.21,-2.14 -1.16,-0.48 -2.43,-0.75 -3.77,-0.75 -1.34,0 -2.62,0.27 -3.78,0.75 -1.2,0.5 -2.29,1.23 -3.2,2.14 -0.91,0.91 -1.65,2 -2.15,3.2 -0.48,1.17 -0.74,2.44 -0.74,3.78 0,1.34 0.26,2.61 0.74,3.78 0.5,1.2 1.24,2.29 2.15,3.2 0.91,0.91 2,1.64 3.2,2.14 1.16,0.48 2.44,0.75 3.78,0.75 1.34,0 2.61,-0.27 3.77,-0.75 1.21,-0.5 2.3,-1.23 3.21,-2.14 0.91,-0.91 1.64,-2 2.14,-3.2 0.48,-1.17 0.75,-2.44 0.75,-3.78 0,-1.34 -0.27,-2.61 -0.75,-3.78 -0.5,-1.2 -1.23,-2.29 -2.14,-3.2z"/>
  <path class="fil0" d="M8.69 8.69c0.24,-0.25 0.56,-0.37 0.88,-0.37 0.33,0 0.65,0.12 0.89,0.37l4.54 4.53 4.54 -4.53c0.24,-0.25 0.56,-0.37 0.89,-0.37 0.32,0 0.64,0.12 0.88,0.37 0.25,0.24 0.37,0.56 0.37,0.88 0,0.33 -0.12,0.65 -0.37,0.89l-4.53 4.54 4.53 4.54c0.25,0.24 0.37,0.56 0.37,0.89 0,0.32 -0.12,0.64 -0.37,0.88l0 0c-0.24,0.25 -0.56,0.37 -0.88,0.37 -0.33,0 -0.65,-0.12 -0.89,-0.37l-4.54 -4.53 -4.54 4.53c-0.24,0.25 -0.56,0.37 -0.89,0.37 -0.32,0 -0.64,-0.12 -0.88,-0.37 -0.25,-0.24 -0.37,-0.56 -0.37,-0.88 0,-0.33 0.12,-0.65 0.37,-0.89l4.53 -4.54 -4.53 -4.54c-0.25,-0.24 -0.37,-0.56 -0.37,-0.89 0,-0.32 0.12,-0.64 0.37,-0.88z"/>
 </g>
</svg>
