<?xml version="1.0" encoding="UTF-8"?>
<!DOCTYPE svg PUBLIC "-//W3C//DTD SVG 1.1//EN" "http://www.w3.org/Graphics/SVG/1.1/DTD/svg11.dtd">
<!-- Creator: CorelDRAW 2018 (64-Bit) -->
<svg xmlns="http://www.w3.org/2000/svg" xml:space="preserve" width="500px" height="500px" version="1.1" style="shape-rendering:geometricPrecision; text-rendering:geometricPrecision; image-rendering:optimizeQuality; fill-rule:evenodd; clip-rule:evenodd"
viewBox="0 0 500 500"
 xmlns:xlink="http://www.w3.org/1999/xlink">
 <defs>
  <style type="text/css">
   <![CDATA[
    .fil0 {fill:#666666;fill-rule:nonzero}
   ]]>
  </style>
 </defs>
 <g id="Warstwa_x0020_1">
  <metadata id="CorelCorpID_0Corel-Layer"/>
  <path class="fil0" d="M-431.38 28.42c27.66,0 54.07,5.51 78.18,15.5 25.06,10.38 47.59,25.57 66.42,44.4 18.83,18.83 34.02,41.36 44.4,66.42 9.99,24.11 15.5,50.51 15.5,78.18 0,27.67 -5.51,54.08 -15.5,78.19 -5.82,14.04 -13.15,27.29 -21.78,39.54l118.04 118.04c13.66,13.66 13.66,35.82 0,49.49 -13.67,13.67 -35.83,13.67 -49.5,0l-118.03 -118.04c-12.25,8.64 -25.5,15.97 -39.55,21.78 -24.11,9.99 -50.52,15.5 -78.18,15.5 -27.67,0 -54.08,-5.51 -78.19,-15.5 -25.06,-10.37 -47.58,-25.56 -66.42,-44.4 -18.83,-18.83 -34.02,-41.36 -44.39,-66.41 -9.99,-24.11 -15.5,-50.52 -15.5,-78.19 0,-27.67 5.51,-54.07 15.49,-78.18 10.38,-25.06 25.57,-47.59 44.4,-66.42 18.84,-18.83 41.37,-34.02 66.42,-44.4 24.11,-9.99 50.52,-15.5 78.19,-15.5zm0 320.5c18.41,-79.96 58.68,-125.32 58.68,-173.31 0,-26.89 -21.8,-58.69 -58.68,-58.69 -36.89,0 -58.69,31.8 -58.69,58.69 0,47.99 40.27,93.35 58.69,173.31zm116.32 -232.32c-15.19,-15.18 -33.3,-27.41 -53.4,-35.73 -19.36,-8.02 -40.61,-12.45 -62.92,-12.45 -22.32,0 -43.57,4.43 -62.93,12.45 -20.1,8.32 -38.21,20.54 -53.39,35.73 -15.19,15.19 -27.41,33.3 -35.74,53.39 -8.02,19.36 -12.44,40.62 -12.44,62.93 0,22.32 4.42,43.57 12.44,62.93 8.33,20.1 20.55,38.21 35.74,53.39 15.18,15.19 33.29,27.41 53.39,35.74 19.36,8.01 40.61,12.44 62.93,12.44 22.31,0 43.56,-4.43 62.92,-12.44 20.1,-8.33 38.21,-20.55 53.4,-35.74 15.18,-15.18 27.41,-33.29 35.73,-53.39 8.02,-19.36 12.45,-40.61 12.45,-62.93 0,-22.31 -4.43,-43.57 -12.45,-62.93 -8.32,-20.09 -20.55,-38.2 -35.73,-53.39z"/>
  <path class="fil0" d="M204.5 0c27.66,0 54.07,5.51 78.18,15.49 25.06,10.38 47.58,25.57 66.42,44.4 18.83,18.84 34.02,41.36 44.4,66.42 9.98,24.11 15.5,50.52 15.5,78.19 0,27.66 -5.52,54.07 -15.5,78.18 -5.82,14.05 -13.15,27.29 -21.78,39.54l118.04 118.04c13.66,13.67 13.66,35.83 0,49.5 -13.67,13.66 -35.83,13.66 -49.5,0l-118.04 -118.04c-12.25,8.63 -25.49,15.96 -39.54,21.78 -24.11,9.98 -50.52,15.5 -78.18,15.5 -27.67,0 -54.08,-5.52 -78.19,-15.5 -25.06,-10.38 -47.58,-25.57 -66.42,-44.4 -18.83,-18.84 -34.02,-41.36 -44.4,-66.42 -9.98,-24.11 -15.49,-50.52 -15.49,-78.18 0,-27.67 5.51,-54.08 15.49,-78.19 10.38,-25.05 25.57,-47.58 44.4,-66.42 18.84,-18.83 41.37,-34.02 66.42,-44.4 24.11,-9.98 50.52,-15.49 78.19,-15.49zm94.38 269.24l12.77 42.5 -84.1 -25.28 19.47 -19.47 -42.46 -42.47 -42.6 42.61 19.37 19.37 -84.1 25.28 25.28 -84.09 19.66 19.67 42.61 -42.61 -42.81 -42.81 -19.37 19.37 -25.28 -84.1 84.1 25.29 -19.67 19.66 42.81 42.81 42.67 -42.67 -19.57 -19.57 84.1 -25.28 -25.28 84.1 -19.47 -19.48 -42.67 42.68 42.46 42.46 19.57 -19.57 12.51 41.6zm21.94 -181.07c-15.19,-15.18 -33.3,-27.4 -53.4,-35.73 -19.36,-8.02 -40.61,-12.44 -62.92,-12.44 -22.32,0 -43.57,4.42 -62.93,12.44 -20.1,8.32 -38.21,20.55 -53.4,35.73 -15.18,15.19 -27.41,33.3 -35.73,53.4 -8.02,19.36 -12.44,40.61 -12.44,62.93 0,22.31 4.42,43.56 12.44,62.92 8.33,20.1 20.55,38.21 35.73,53.4 15.19,15.18 33.3,27.41 53.4,35.73 19.36,8.02 40.61,12.45 62.93,12.45 22.31,0 43.56,-4.43 62.92,-12.45 20.1,-8.32 38.21,-20.55 53.4,-35.73 15.18,-15.19 27.41,-33.3 35.73,-53.4 8.02,-19.36 12.45,-40.61 12.45,-62.92 0,-22.32 -4.43,-43.57 -12.45,-62.93 -8.32,-20.1 -20.55,-38.21 -35.73,-53.4z"/>
 </g>
</svg>
